# xmcd CD database file
# Copyright (C) 1993-1996 Ti Kan
#
# Track frame offsets:
#	150
#	16232
#	28627
#	42525
#	54820
#	66765
#	81147
#	94210
#	107955
#	119255
#
# Disc length: 1744 seconds
#
# Revision: 1
# Processed by: cddbd v1.4b41PL1 Copyright (c) Steve Scherf et al.
# Submitted via: CDValet v3.31 - Copyright (c) 1997 Greg Leichner
#
DISCID=7c06ce0a
DTITLE=Assorted - All Star Country Hits
DYEAR=1900
DGENRE=
TTITLE0=Only Here For A Little While
TTITLE1=Okie From Muskogee
TTITLE2=If Your Heart Ain't Busy Tonight
TTITLE3=By The Time I get To Phoenix
TTITLE4=Don't It Make My Brown Eyes Blue
TTITLE5=God Bless The USA
TTITLE6=Crazy
TTITLE7=Honky Tonk Blues
TTITLE8=Hello Darlin'
TTITLE9=She Thinks I Still Care
EXTD=
EXTT0=
EXTT1=
EXTT2=
EXTT3=
EXTT4=
EXTT5=
EXTT6=
EXTT7=
EXTT8=
EXTT9=
PLAYORDER=
